<?xml version="1.0" encoding="utf-8"?>
<!-- Svg Vector Icons : http://www.onlinewebfonts.com/icon -->
<!DOCTYPE svg PUBLIC "-//W3C//DTD SVG 1.1//EN" "http://www.w3.org/Graphics/SVG/1.1/DTD/svg11.dtd">
<svg version="1.1" xmlns="http://www.w3.org/2000/svg" xmlns:xlink="http://www.w3.org/1999/xlink" x="0px" y="0px" viewBox="0 0 1000 1000" enable-background="new 0 0 1000 1000" xml:space="preserve">
<metadata> Svg Vector Icons : http://www.onlinewebfonts.com/icon </metadata>
<g><g transform="translate(0.000000,130.000000) scale(0.100000,-0.100000)"><path d="M1081.9-2483.3c-361.9-78.5-693.2-338.9-848.3-660.6c-178.1-371.5-178.1-735.3,0-1106.8c61.3-130.2,109.1-193.4,233.6-317.9c258.5-256.6,520.9-363.8,882.8-363.8c245.1,1.9,365.7,32.5,591.7,149.4c260.4,134,465.3,373.4,582.1,679.8c46,116.8,49.8,153.2,49.8,406c0,252.8-3.8,289.2-49.8,406c-191.5,499.8-607,806.2-1122.1,829.2C1275.3-2456.5,1171.9-2462.2,1081.9-2483.3z"/><path d="M4739.3-2483.3c-72.8-13.4-206.8-61.3-296.8-105.3c-130.2-65.1-195.3-113-325.5-245.1c-271.9-273.8-377.2-549.6-358.1-930.6c17.2-281.5,99.6-503.6,266.2-706.6c235.5-287.2,614.7-471.1,972.8-471.1c293,0,626.2,134,842.6,338.9c164.7,153.2,254.7,287.2,331.3,490.2c55.5,147.5,59.4,172.3,59.4,415.5c0,243.2-3.8,268.1-59.4,415.5c-76.6,203-166.6,337-331.3,490.2C5549.3-2515.9,5147.2-2402.9,4739.3-2483.3z"/><path d="M8431.3-2471.8c-478.7-86.2-875.1-459.6-993.8-938.3c-46-183.8-28.7-520.9,34.5-693.2c68.9-185.8,160.8-331.3,293-465.3c141.7-143.6,296.8-239.4,497.9-308.3c130.2-44,185.7-51.7,373.4-53.6c371.5-3.8,630,101.5,892.3,361.9c124.5,124.5,172.3,187.7,233.6,317.9c82.3,170.4,137.9,392.5,137.9,553.4c0,160.8-55.5,383-137.9,553.4c-61.3,130.2-109.2,193.4-233.6,317.9c-168.5,166.6-302.6,248.9-518.9,316C8856.4-2464.2,8582.5-2445,8431.3-2471.8z"/></g></g>
</svg>