<?xml version="1.0" encoding="utf-8"?>
<!-- Svg Vector Icons : http://www.onlinewebfonts.com/icon -->
<!DOCTYPE svg PUBLIC "-//W3C//DTD SVG 1.1//EN" "http://www.w3.org/Graphics/SVG/1.1/DTD/svg11.dtd">
<svg version="1.1" xmlns="http://www.w3.org/2000/svg" xmlns:xlink="http://www.w3.org/1999/xlink" x="0px" y="0px" viewBox="0 0 1000 1000" enable-background="new 0 0 1000 1000" xml:space="preserve">
<metadata> Svg Vector Icons : http://www.onlinewebfonts.com/icon </metadata>
<g><g transform="matrix(1 0 0 -1 0 480)"><path d="M928.8,286.3h-245v59.3c0,25.5-8.9,47.2-26.8,65.1s-39.6,26.8-65.1,26.8H408.1c-25.5,0-47.2-8.9-65.1-26.8s-26.8-39.6-26.8-65.1v-59.3h-245c-16.6,0-30.9-6.1-43.1-18.2S10,241.6,10,225V10.6v-61.3v-365.6c0-16.6,6.1-30.9,18.2-43.1s26.5-18.2,43.1-18.2h857.5c16.6,0,30.9,6.1,43.1,18.2s18.2,26.5,18.2,43.1V225c0,16.6-6.1,30.9-18.2,43.1S945.3,286.3,928.8,286.3z M377.5,345.6c0,8.9,2.9,16.3,8.6,22s13.1,8.6,22,8.6h183.8c8.9,0,16.3-2.9,22-8.6s8.6-13.1,8.6-22v-59.3h-245V345.6z M71.3,225h857.5V10.6H591.9v32.5c0,16.6-6.1,30.9-18.2,43.1s-26.5,18.2-43.1,18.2h-61.3c-16.6,0-30.9-6.1-43.1-18.2s-18.2-26.5-18.2-43.1V10.6H71.3V225z M530.6-111.9h-61.3v155h61.3V-111.9z M71.3-416.2v365.6h336.9v-61.3c0-16.6,6.1-30.9,18.2-43.1s26.5-18.2,43.1-18.2h61.3c16.6,0,30.9,6.1,43.1,18.2s18.2,26.5,18.2,43.1v61.3h336.9v-365.6H71.3z"/></g></g>
</svg>